<?xml version="1.0" encoding="UTF-8"?>
<svg id="Layer_2" data-name="Layer 2" xmlns="http://www.w3.org/2000/svg" xmlns:xlink="http://www.w3.org/1999/xlink" viewBox="0 0 1451.34 1451.34">
  <defs>
    <style>
      .cls-1 {
        fill: #231f20;
      }

      .cls-2 {
        fill: #fff;
      }

      .cls-3 {
        fill: url(#radial-gradient-5);
      }

      .cls-4 {
        fill: url(#radial-gradient);
      }

      .cls-5 {
        fill: url(#radial-gradient-3);
      }

      .cls-6 {
        fill: url(#radial-gradient-8);
      }

      .cls-7 {
        fill: url(#radial-gradient-2);
      }

      .cls-8 {
        fill: url(#radial-gradient-4);
      }

      .cls-9 {
        fill: url(#radial-gradient-6);
      }

      .cls-10 {
        fill: url(#radial-gradient-7);
      }
    </style>
    <radialGradient id="radial-gradient" cx="907.01" cy="755.42" fx="907.01" fy="755.42" r="943.88" gradientUnits="userSpaceOnUse">
      <stop offset="0" stop-color="#fff33b"/>
      <stop offset=".04" stop-color="#fee62d"/>
      <stop offset=".12" stop-color="#fdd51b"/>
      <stop offset=".2" stop-color="#fdca0f"/>
      <stop offset=".28" stop-color="#fdc70c"/>
      <stop offset=".85" stop-color="#f3903f"/>
      <stop offset="1" stop-color="#f7941d"/>
    </radialGradient>
    <radialGradient id="radial-gradient-2" cx="907.01" cy="755.42" fx="907.01" fy="755.42" r="943.88" xlink:href="#radial-gradient"/>
    <radialGradient id="radial-gradient-3" cx="907.01" cy="755.42" fx="907.01" fy="755.42" r="943.88" xlink:href="#radial-gradient"/>
    <radialGradient id="radial-gradient-4" cx="907.01" cy="755.42" fx="907.01" fy="755.42" r="943.88" xlink:href="#radial-gradient"/>
    <radialGradient id="radial-gradient-5" cx="907.01" cy="755.42" fx="907.01" fy="755.42" r="943.88" xlink:href="#radial-gradient"/>
    <radialGradient id="radial-gradient-6" cx="907.01" cy="755.42" fx="907.01" fy="755.42" r="943.88" xlink:href="#radial-gradient"/>
    <radialGradient id="radial-gradient-7" cx="907.01" fx="907.01" r="943.87" xlink:href="#radial-gradient"/>
    <radialGradient id="radial-gradient-8" cx="839.8" cy="755.42" fx="839.8" fy="755.42" r="883.15" xlink:href="#radial-gradient"/>
  </defs>
  <g id="Layer_1-2" data-name="Layer 1">
    <g>
      <rect class="cls-2" x="0" y="0" width="1451.34" height="1451.34" rx="725.67" ry="725.67"/>
      <g>
        <g>
          <path class="cls-4" d="M313.44,697.74v-297.96H77.97C29.32,496.41,1.63,605.38.88,720.79h286.91c5.05-10.79,14.28-19.1,25.64-23.04Z"/>
          <path class="cls-7" d="M286.68,1080.65H93.5c54.11,96.29,129.55,178.9,219.93,241.58v-216.04c-12.23-4.24-22.03-13.54-26.76-25.54Z"/>
          <path class="cls-5" d="M313.44,1022.61v-241.29c-12.79-4.44-22.83-14.45-27.28-27.23H1.46c4.06,105.05,30.44,204.3,74.51,293.25h210.96c4.84-11.63,14.54-20.58,26.51-24.73Z"/>
          <path class="cls-8" d="M95.77,366.48h217.67v-237.37c-89.1,61.77-163.73,142.87-217.67,237.37Z"/>
          <path class="cls-3" d="M1239.41,1239.09c-120.34,105.9-278.41,170.29-451.37,170.29-39.52,0-78.15-3.33-115.67-9.77v-318.96h-303.23c-4.16,10.54-12.21,19.03-22.41,23.83v239.62c96.03,59.07,206.82,96.47,325.64,105.25,17.98,1.33,35.97,2,54.17,2,200.26,0,381.65-81.26,512.87-212.25Z"/>
          <path class="cls-9" d="M346.74,779.61v244.71c9.95,4.68,17.92,12.84,22.16,23.02h303.48v-293.25h-302.7c-3.94,11.29-12.21,20.47-22.93,25.52Z"/>
          <path class="cls-10" d="M368.04,720.79h304.34v-290.68c-13.3-5.1-23.43-16.36-27.03-30.33h-298.61v299.67c9.37,4.41,16.9,11.95,21.3,21.33Z"/>
          <path class="cls-6" d="M1139.66,129.2C1022.42,47.89,880.08,0,726.55,0c-18.2,0-36.19.67-54.17,2-118.82,8.78-229.61,46.19-325.64,105.24v259.23h303.25c5.07-8.68,12.89-15.47,22.38-19.1V51.73c37.52-6.44,76.15-9.77,115.67-9.77,126.15,0,244.32,34.38,345.77,94.02l86.01,53.13-80.16-59.91Z"/>
        </g>
        <g>
          <path class="cls-1" d="M933.07,1306.68c0,10.97-3.9,20.36-11.7,28.15-7.8,7.79-17.18,11.69-28.15,11.69h-6.35v-37.83h1.73c3.08,0,4.96-.34,5.63-1.01.68-.67,1.01-2.55,1.01-5.63v-81.14c0-3.08-.34-4.95-1.01-5.63-.67-.67-2.55-1.01-5.63-1.01h-13.57c-3.08,0-4.95.34-5.63,1.01-.67.68-1.01,2.55-1.01,5.63v85.76c0,10.97-3.94,20.36-11.84,28.15-7.89,7.79-17.23,11.69-28.01,11.69h-23.1c-10.97,0-20.36-3.9-28.15-11.69-7.8-7.8-11.7-17.18-11.7-28.15v-90.38c0-10.97,3.9-20.4,11.7-28.3,7.8-7.89,17.18-11.84,28.15-11.84h6.35v38.12h-1.73c-3.08,0-4.95.34-5.63,1.01-.67.68-1.01,2.55-1.01,5.63v81.14c0,3.08.34,4.96,1.01,5.63.68.68,2.55,1.01,5.63,1.01h13.57c3.08,0,4.96-.34,5.63-1.01.68-.67,1.01-2.55,1.01-5.63v-85.76c0-10.97,3.95-20.4,11.84-28.3,7.89-7.89,17.23-11.84,28.01-11.84h23.1c10.97,0,20.36,3.95,28.15,11.84,7.8,7.89,11.7,17.32,11.7,28.3v90.38Z"/>
          <path class="cls-1" d="M933.07,1115.52c0,10.97-3.9,20.36-11.7,28.15-7.8,7.8-17.18,11.7-28.15,11.7h-127.63v-37.83h119.55c5.39,0,8.42-.33,9.1-1.01.68-.67,1.01-3.71,1.01-9.1v-74.21c0-5.39-.34-8.42-1.01-9.1-.67-.67-3.7-1.01-9.1-1.01h-119.55v-37.83h127.63c10.97,0,20.36,3.9,28.15,11.7,7.8,7.8,11.7,17.18,11.7,28.15v90.38Z"/>
          <path class="cls-1" d="M933.07,953.81h-167.48v-130.23c0-10.97,3.9-20.36,11.7-28.15,7.8-7.8,17.18-11.69,28.15-11.69h127.63v37.83h-119.55c-5.39,0-8.42.34-9.1,1.01-.67.67-1.01,3.71-1.01,9.09v74.21c0,5.39.34,8.42,1.01,9.1.68.68,3.71,1.01,9.1,1.01h119.55v37.83Z"/>
          <path class="cls-1" d="M933.07,752.83h-167.48v-130.23c0-10.97,3.9-20.36,11.7-28.15,7.8-7.8,17.18-11.69,28.15-11.69h127.63v37.83h-119.55c-5.39,0-8.42.34-9.1,1.01-.67.67-1.01,3.71-1.01,9.09v74.21c0,5.4.34,8.43,1.01,9.1.68.68,3.71,1.01,9.1,1.01h119.55v37.83Z"/>
          <path class="cls-1" d="M748.84,552.44h-38.12v-37.83h38.12v37.83ZM933.07,552.44h-167.48v-37.83h167.48v37.83Z"/>
          <path class="cls-1" d="M933.07,403.73l-167.48,92.12v-43.6l121.57-66.13-121.57-65.84v-43.6l167.48,92.4v34.65Z"/>
          <path class="cls-1" d="M933.07,225.28c0,10.97-3.9,20.36-11.7,28.15-7.8,7.8-17.18,11.69-28.15,11.69h-62.95v-132.25h-16.75c-5.39,0-8.42.34-9.1,1.01-.67.67-1.01,3.71-1.01,9.09v122.15h-37.83v-130.23c0-10.97,3.9-20.36,11.7-28.16,7.8-7.8,17.18-11.69,28.15-11.69h127.63v130.23ZM895.24,217.19v-84.32h-30.9v94.42h20.79c5.39,0,8.42-.33,9.1-1.01.68-.67,1.01-3.7,1.01-9.09Z"/>
        </g>
      </g>
    </g>
  </g>
</svg>