<?xml version="1.0" encoding="UTF-8"?>
<svg id="Layer_2" data-name="Layer 2" xmlns="http://www.w3.org/2000/svg" viewBox="0 0 469.59 130.77">
  <defs>
    <style>
      .cls-1 {
        fill: #fff;
      }
    </style>
  </defs>
  <g id="Layer_1-2" data-name="Layer 1">
    <g>
      <g>
        <path class="cls-1" d="M28.16,62.87v-26.85H6.95C2.56,44.73.07,54.54,0,64.94h25.85c.46-.97,1.29-1.72,2.31-2.08Z"/>
        <path class="cls-1" d="M25.75,97.37H8.35c4.88,8.68,11.67,16.12,19.82,21.77v-19.47c-1.1-.38-1.98-1.22-2.41-2.3Z"/>
        <path class="cls-1" d="M28.16,92.14v-21.74c-1.15-.4-2.06-1.3-2.46-2.45H.05c.37,9.47,2.74,18.41,6.71,26.42h19.01c.44-1.05,1.31-1.85,2.39-2.23Z"/>
        <path class="cls-1" d="M8.55,33.02h19.61V11.63c-8.03,5.57-14.75,12.87-19.61,21.39Z"/>
        <path class="cls-1" d="M111.59,111.64c-10.84,9.54-25.09,15.34-40.67,15.34-3.56,0-7.04-.3-10.42-.88v-28.74h-27.32c-.37.95-1.1,1.71-2.02,2.15v21.59c8.65,5.32,18.63,8.69,29.34,9.48,1.62.12,3.24.18,4.88.18,18.04,0,34.39-7.32,46.21-19.12Z"/>
        <path class="cls-1" d="M31.16,70.24v22.05c.9.42,1.61,1.16,2,2.07h27.34v-26.42h-27.27c-.36,1.02-1.1,1.84-2.07,2.3Z"/>
        <path class="cls-1" d="M33.08,64.94h27.42v-26.19c-1.2-.46-2.11-1.47-2.44-2.73h-26.9v27c.84.4,1.52,1.08,1.92,1.92Z"/>
        <path class="cls-1" d="M102.6,11.64C92.04,4.31,79.22,0,65.38,0c-1.64,0-3.26.06-4.88.18-10.71.79-20.69,4.16-29.34,9.48v23.36h27.32c.46-.78,1.16-1.39,2.02-1.72V4.66c3.38-.58,6.86-.88,10.42-.88,11.37,0,22.01,3.1,31.15,8.47l7.75,4.79-7.22-5.4Z"/>
      </g>
      <g>
        <path class="cls-1" d="M96.8,93.22c-3.38,0-6.26-1.2-8.66-3.6-2.4-2.4-3.6-5.29-3.6-8.66v-1.95h11.64v.53c0,.95.1,1.53.31,1.73.21.21.78.31,1.73.31h24.97c.95,0,1.52-.1,1.73-.31.21-.21.31-.78.31-1.73v-4.18c0-.95-.1-1.52-.31-1.73-.21-.21-.79-.31-1.73-.31h-26.39c-3.38,0-6.26-1.21-8.66-3.64-2.4-2.43-3.6-5.3-3.6-8.62v-7.11c0-3.38,1.2-6.26,3.6-8.66,2.4-2.4,5.29-3.6,8.66-3.6h27.81c3.38,0,6.28,1.2,8.71,3.6,2.43,2.4,3.64,5.29,3.64,8.66v1.95h-11.73v-.53c0-.95-.1-1.52-.31-1.73-.21-.21-.79-.31-1.73-.31h-24.97c-.95,0-1.53.11-1.73.31-.21.21-.31.79-.31,1.73v4.18c0,.95.1,1.53.31,1.73.21.21.78.31,1.73.31h26.39c3.38,0,6.28,1.22,8.71,3.64,2.43,2.43,3.64,5.3,3.64,8.62v7.11c0,3.38-1.21,6.26-3.64,8.66-2.43,2.4-5.33,3.6-8.71,3.6h-27.81Z"/>
        <path class="cls-1" d="M155.61,93.22c-3.38,0-6.26-1.2-8.66-3.6s-3.6-5.29-3.6-8.66v-39.27h11.64v36.78c0,1.66.1,2.59.31,2.8.21.21,1.14.31,2.8.31h22.83c1.66,0,2.59-.1,2.8-.31.21-.21.31-1.14.31-2.8v-36.78h11.64v39.27c0,3.38-1.2,6.26-3.6,8.66s-5.29,3.6-8.66,3.6h-27.81Z"/>
        <path class="cls-1" d="M205.37,93.22v-51.53h40.07c3.38,0,6.26,1.2,8.66,3.6,2.4,2.4,3.6,5.29,3.6,8.66v39.27h-11.64v-36.78c0-1.66-.1-2.59-.31-2.8-.21-.21-1.14-.31-2.8-.31h-22.83c-1.66,0-2.59.11-2.8.31-.21.21-.31,1.14-.31,2.8v36.78h-11.64Z"/>
        <path class="cls-1" d="M267.2,93.22v-51.53h40.07c3.38,0,6.26,1.2,8.66,3.6,2.4,2.4,3.6,5.29,3.6,8.66v39.27h-11.64v-36.78c0-1.66-.1-2.59-.31-2.8-.21-.21-1.14-.31-2.8-.31h-22.83c-1.66,0-2.59.11-2.8.31s-.31,1.14-.31,2.8v36.78h-11.64Z"/>
        <path class="cls-1" d="M328.86,36.54v-11.73h11.64v11.73h-11.64ZM328.86,93.22v-51.53h11.64v51.53h-11.64Z"/>
        <path class="cls-1" d="M374.62,93.22l-28.34-51.53h13.42l20.35,37.4,20.26-37.4h13.42l-28.43,51.53h-10.66Z"/>
        <path class="cls-1" d="M429.52,93.22c-3.38,0-6.26-1.2-8.66-3.6s-3.6-5.29-3.6-8.66v-19.37h40.69v-5.15c0-1.66-.1-2.59-.31-2.8-.21-.21-1.14-.31-2.8-.31h-37.58v-11.64h40.07c3.38,0,6.26,1.2,8.66,3.6,2.4,2.4,3.6,5.29,3.6,8.66v39.27h-40.07ZM432.01,81.58h25.94v-9.51h-29.05v6.4c0,1.66.1,2.59.31,2.8.21.21,1.14.31,2.8.31Z"/>
      </g>
    </g>
  </g>
</svg>